<svg width="71" height="61" viewBox="0 0 71 61" fill="none" xmlns="http://www.w3.org/2000/svg">
<path d="M35.5 8.35266C35.5 8.35266 18.25 -6.40372 1 5.89326V60C18.25 47.703 35.5 60 35.5 60M35.5 8.35266C35.5 8.35266 52.75 -6.40372 70 5.89326V60C52.75 47.703 35.5 60 35.5 60M35.5 8.35266V60" stroke="#3AAA35" stroke-width="1.97143" stroke-linecap="round" stroke-linejoin="round"/>
<path d="M4.28564 46.4552C10.3095 43.7226 21.6999 41.1947 32.2142 47.7531" stroke="#3AAA35" stroke-width="1.64286"/>
<path d="M38.7856 46.4552C44.8095 43.7226 56.1999 41.1947 66.7142 47.7531" stroke="#3AAA35" stroke-width="1.64286"/>
<path d="M4.28564 39.8966C10.3095 37.164 21.6999 34.6361 32.2142 41.1945" stroke="#3AAA35" stroke-width="1.64286"/>
<path d="M38.7856 39.8966C44.8095 37.164 56.1999 34.6361 66.7142 41.1945" stroke="#3AAA35" stroke-width="1.64286"/>
<path d="M4.28564 33.338C10.3095 30.6054 21.6999 28.0775 32.2142 34.6359" stroke="#3AAA35" stroke-width="1.64286"/>
<path d="M38.7856 33.338C44.8095 30.6054 56.1999 28.0775 66.7142 34.6359" stroke="#3AAA35" stroke-width="1.64286"/>
<path d="M4.28564 26.7804C10.3095 24.0477 21.6999 21.5199 32.2142 28.0783" stroke="#3AAA35" stroke-width="1.64286"/>
<path d="M38.7856 26.7804C44.8095 24.0477 56.1999 21.5199 66.7142 28.0783" stroke="#3AAA35" stroke-width="1.64286"/>
<path d="M4.28564 20.2208C10.3095 17.4882 21.6999 14.9604 32.2142 21.5187" stroke="#3AAA35" stroke-width="1.64286"/>
<path d="M38.7856 20.2208C44.8095 17.4882 56.1999 14.9604 66.7142 21.5187" stroke="#3AAA35" stroke-width="1.64286"/>
</svg>
