<svg width="60" height="64" viewBox="0 0 60 64" fill="none" xmlns="http://www.w3.org/2000/svg">
<path d="M22.3745 0.175877C20.6554 0.612259 18.7115 1.94785 17.8388 3.29667L17.4156 3.95785H16.6751C15.5378 3.95785 14.189 4.30167 12.9592 4.89674C12.0336 5.33311 11.6501 5.62404 10.7112 6.57614C8.89954 8.42746 8.0929 10.4771 8.23836 12.95L8.30448 14.2194L7.43171 14.5236C5.05145 15.3567 3.21336 17.3534 2.57862 19.8263C2.2348 21.1619 2.35382 23.1586 2.86954 24.4678L3.26625 25.4728L2.31415 26.4646C0.780198 28.0646 0 29.9424 0 32.0582C0 33.9095 0.674408 35.6815 1.91743 37.1096L2.5125 37.7973L2.14224 38.3659C0.938882 40.1511 0.542171 43.0206 1.20336 45.0571C1.85132 47.0538 3.37204 48.7994 5.22336 49.6589L5.88454 49.9763L5.91099 51.1929C5.95066 53.8905 6.90276 56.2179 8.71441 58.0163C10.1822 59.4973 11.703 60.1188 13.5411 59.9866L14.6122 59.9205L14.9428 60.4494C15.8288 61.8776 17.9974 63.3587 19.8355 63.7818C21.0653 64.0727 25.0721 64.0727 26.0639 63.7818C27.4788 63.3587 28.6822 62.5256 29.4095 61.4809C29.6343 61.1635 29.6343 61.1503 29.7797 61.4148C30.0442 61.904 31.1947 62.9223 31.8294 63.2396C33.0857 63.8876 33.7336 63.9934 36.2197 63.9934C38.8909 63.9934 39.7504 63.8347 41.2315 63.1074C42.2894 62.5917 43.7704 61.309 44.2994 60.4494L44.6299 59.9205L45.7011 59.9866C47.5392 60.1188 49.0599 59.4973 50.5277 58.0163C52.3394 56.2179 53.2915 53.8905 53.3311 51.1929L53.3576 49.9763L54.0188 49.6589C55.8569 48.7994 57.404 47.0406 58.0388 45.0835C58.7132 42.9942 58.3165 40.1908 57.0999 38.3659L56.7296 37.7973L57.3247 37.1096C60.0355 34.0021 59.8636 29.5325 56.9147 26.4381L55.9362 25.4199L56.2007 24.8777C56.8619 23.5025 57.0602 21.347 56.6503 19.7734C56.0288 17.3667 54.0055 15.1715 51.7178 14.4575L50.9376 14.2062L51.0038 13.0161C51.1492 10.5168 50.2897 8.34812 48.4648 6.51003C47.6053 5.63726 47.1557 5.31989 46.2697 4.88351C45.0399 4.30167 43.7043 3.95785 42.5671 3.95785C41.8265 3.95785 41.8265 3.95785 41.4166 3.30989C40.7686 2.33134 39.6446 1.36601 38.428 0.784168C37.0395 0.122982 36.0742 -0.062149 34.2097 0.0171928C32.8741 0.0700874 32.6228 0.122982 31.8294 0.493248C31.274 0.744495 30.6922 1.15443 30.2822 1.57759L29.6211 2.252L28.9599 1.57759C28.5499 1.15443 27.9681 0.744495 27.4127 0.480022C26.5664 0.083313 26.4209 0.0568657 24.7944 0.0304184C23.6968 0.0039711 22.8241 0.0568657 22.3745 0.175877ZM26.659 2.15943C27.016 2.33134 27.5317 2.71482 27.8094 3.0322C28.6425 4.01075 28.6954 4.34134 28.6954 8.54647V12.2888L28.2061 12.0507C27.3995 11.6408 26.13 11.2441 25.125 11.0854C23.1679 10.7548 20.9728 11.6011 20.1132 13.0029C19.7694 13.5583 19.7562 13.9285 20.1 14.2723C20.5364 14.7087 21.0786 14.6161 21.6472 13.9946C22.4538 13.1219 23.0224 12.8838 24.2655 12.8971C25.4688 12.9103 26.5532 13.2277 27.8755 13.955L28.6954 14.4178V18.3056C28.6954 20.4478 28.669 22.2065 28.6557 22.2065C28.6293 22.2065 28.14 22.0875 27.5714 21.9421C25.7597 21.4792 24.4242 21.6379 23.2472 22.4446C22.5728 22.9074 21.8191 23.9785 21.8191 24.4678C21.8191 25.0496 22.1761 25.3934 22.7183 25.3538C23.1018 25.3273 23.2605 25.2083 23.5911 24.7323C24.2258 23.8463 24.5961 23.6215 25.5878 23.5554C26.2622 23.5157 26.6986 23.5818 27.5714 23.8463L28.6954 24.2033L28.669 31.7011L28.6293 39.199L27.7697 39.5163C27.1879 39.7279 26.5928 39.8337 25.9184 39.8469C24.7151 39.8602 24.12 39.556 23.5911 38.6568C23.3927 38.3262 23.115 38.0353 22.9431 37.9956C22.639 37.9163 22.0968 38.1279 21.9249 38.3923C21.4488 39.1064 22.6125 40.7726 24.0539 41.4206C24.8473 41.7776 26.5267 41.7776 27.8094 41.4073L28.6954 41.1561L28.669 46.9745L28.6293 52.7929L27.8359 53.2425C26.778 53.8244 25.1382 54.3401 24.3051 54.3401C23.2737 54.3401 22.6654 54.0888 21.8059 53.3219C21.3695 52.9384 20.8934 52.621 20.748 52.621C20.4174 52.621 19.8355 53.1896 19.8355 53.5202C19.8355 53.8508 20.4967 54.7633 21.0124 55.1203C22.8241 56.4162 25.006 56.4956 27.664 55.3451L28.7218 54.8823L28.669 56.9584C28.6293 58.7304 28.5896 59.1271 28.3516 59.6428C27.9549 60.4891 27.1879 61.2958 26.3945 61.7189C25.7465 62.0627 25.6143 62.076 23.3795 62.1156C20.7612 62.1685 19.9281 62.0495 18.8438 61.4809C16.7147 60.3569 15.5511 58.5717 15.3395 56.1385C15.2601 55.1335 15.194 54.9219 14.9428 54.7104C14.5593 54.393 14.2684 54.4062 13.8188 54.7633C13.4617 55.041 13.4485 55.0542 13.5278 56.2443C13.5807 56.9055 13.6468 57.6063 13.6997 57.8179L13.7791 58.175H13.0121C11.6104 58.175 10.1161 57.1832 9.00533 55.517C7.11434 52.6871 7.37882 48.3101 9.49461 47.001C10.7509 46.234 10.7773 46.2075 10.817 45.7844C10.8699 45.2686 10.4732 44.819 9.98388 44.819C9.05823 44.819 7.47138 46.115 6.79698 47.3977C6.5854 47.7944 6.34737 48.125 6.26803 48.125C5.99033 48.125 4.56217 47.1067 4.11257 46.6042C3.14724 45.4935 2.53895 43.5892 2.69763 42.1479C2.84309 40.9313 3.62329 39.0006 3.98033 39.0006C4.04645 39.0006 4.5225 39.2122 5.025 39.4634C6.5854 40.2436 7.74908 40.5081 9.71941 40.5213C10.6715 40.5213 11.6897 40.4817 11.9807 40.4288L12.5361 40.323L12.6815 41.1958C13.4353 45.5199 16.9131 48.3894 21.3959 48.3894C22.7976 48.3894 23.1811 48.1911 23.1811 47.4638C23.1811 46.7365 22.7976 46.5381 21.3695 46.5381C19.2669 46.5381 17.7859 45.9431 16.3974 44.5546C14.956 43.1132 14.3213 41.3941 14.4799 39.4106C14.6386 37.5196 15.3791 35.9988 16.6883 34.8484C17.971 33.7244 19.452 33.1822 21.2505 33.1822C22.5596 33.1822 22.9299 33.05 23.1018 32.5607C23.2737 32.0979 23.115 31.6615 22.7315 31.4499C22.2158 31.1854 19.5578 31.3706 18.4074 31.7673C15.7891 32.6797 13.9245 34.5575 13.0253 37.2154L12.6154 38.4056L11.9013 38.5642C10.7244 38.8023 8.7673 38.7758 7.64329 38.4849C3.82165 37.5063 1.41493 34.4649 1.86454 31.1986C2.03645 29.9953 2.7373 28.5936 3.62329 27.6811L4.35059 26.9274L4.98533 27.496C6.18869 28.5539 8.18546 29.3473 9.70619 29.3473C10.4996 29.3473 10.8434 29.0829 10.8434 28.4878C10.8434 27.8795 10.4864 27.6283 9.41527 27.496C8.27803 27.3506 7.55073 27.0729 6.61184 26.4117C4.2977 24.8248 3.5175 21.5983 4.82665 19.0329C5.50105 17.7237 6.74408 16.6658 8.17224 16.1898C8.55573 16.0707 8.89954 15.9914 8.91277 16.0046C8.93921 16.0311 9.12434 16.3881 9.33592 16.7848C9.5475 17.1815 10.1955 17.9882 10.7773 18.57C11.9278 19.7337 13.1576 20.4478 14.6122 20.8181C15.7759 21.109 16.199 21.0825 16.5164 20.6726C17.0982 19.9321 16.728 19.4031 15.4188 19.099C12.9724 18.5436 10.8699 16.4939 10.3277 14.1401C10.1293 13.2938 10.1558 11.6805 10.3806 10.8474C10.8699 8.96963 12.1526 7.40923 13.8981 6.54969C14.7312 6.13976 16.4503 5.67693 16.5825 5.82239C16.609 5.84884 16.5693 6.4439 16.5032 7.13154C16.3841 8.18943 16.3974 8.46713 16.5693 8.87706C16.8338 9.5118 17.323 9.65726 17.8255 9.287C18.1297 9.06219 18.1826 8.90351 18.2222 8.30844C18.3148 6.23233 18.857 4.7645 19.9413 3.65371C21.224 2.33134 22.4406 1.85529 24.5299 1.84206C25.7862 1.84206 26.0771 1.88173 26.659 2.15943ZM37.4627 2.33134C39.724 3.40246 40.8876 5.35956 41.0199 8.30844C41.0595 8.90351 41.1124 9.06219 41.4034 9.27377C41.8926 9.64404 42.4216 9.47213 42.6728 8.87706C42.8315 8.48035 42.8447 8.17621 42.739 7.14476C42.6596 6.4439 42.6332 5.84884 42.6596 5.82239C42.8051 5.67693 44.4448 6.11331 45.3308 6.53647C49.4169 8.46713 50.3558 14.0343 47.1424 17.2477C46.2036 18.1865 45.0795 18.8213 43.8233 19.099C42.5009 19.4031 42.1439 19.9321 42.739 20.6858C43.0034 21.0296 43.0695 21.0429 43.7836 20.9635C46.0978 20.7255 48.7161 18.9271 49.8797 16.7716C50.2765 16.0443 50.3426 15.9782 50.6864 16.0443C51.9559 16.2956 53.6485 17.5915 54.3097 18.8609C54.8651 19.8924 55.0238 20.5536 55.0238 21.7834C55.0238 24.3223 53.503 26.3984 51.0567 27.2315C50.6203 27.377 50.012 27.496 49.7211 27.496C48.8219 27.496 48.3987 27.8134 48.3987 28.4746C48.3987 29.0829 48.7293 29.3473 49.5095 29.3473C51.0567 29.3473 53.0534 28.5539 54.2965 27.4563L54.8915 26.9274L55.6188 27.6811C56.4916 28.5804 57.1924 29.9688 57.3776 31.1986C57.8669 34.2798 55.5924 37.2948 51.9691 38.4056C51.0038 38.6965 48.4384 38.8023 47.4069 38.5775L46.6267 38.4056L46.2168 37.2154C45.3176 34.5575 43.453 32.6797 40.8347 31.7673C39.6975 31.3706 37.0263 31.1854 36.5106 31.4499C36.0742 31.6879 35.9288 32.1904 36.1668 32.64C36.3916 33.1029 36.6693 33.1822 38.0181 33.1822C39.7901 33.1822 41.2844 33.7376 42.5538 34.8484C45.4498 37.3741 45.5556 41.9098 42.7919 44.6207C41.4166 45.9563 39.9355 46.5381 37.8726 46.5381C36.8941 46.5381 36.6032 46.591 36.3519 46.7761C35.942 47.12 35.942 47.8076 36.3784 48.1646C36.6693 48.3894 36.8412 48.4159 38.2165 48.3498C40.0017 48.2836 41.1521 47.9663 42.4877 47.1861C44.6432 45.9166 46.111 43.7611 46.5474 41.1958L46.7061 40.3362L47.3144 40.4288C47.6582 40.4817 48.6764 40.5213 49.5888 40.5213C51.4798 40.5081 52.7096 40.2304 54.2436 39.4634C54.7461 39.2122 55.2089 39.0006 55.275 39.0006C55.6188 39.0006 56.399 40.9445 56.5313 42.1479C56.7296 43.8405 55.9494 45.8902 54.7064 47.0142C54.0981 47.5563 53.1989 48.125 52.9344 48.125C52.8815 48.125 52.6567 47.7944 52.4451 47.3977C51.7707 46.115 50.1839 44.819 49.2582 44.819C48.359 44.819 48.1078 45.9827 48.9012 46.472C49.9988 47.1464 50.1971 47.3051 50.5806 47.8076C51.9426 49.5928 51.7972 53.1367 50.25 55.4906C49.1524 57.17 47.6449 58.175 46.23 58.175H45.463L45.5424 57.8179C45.5953 57.6063 45.6614 56.9055 45.7143 56.2443C45.7936 55.0542 45.7804 55.041 45.4234 54.7633C44.9738 54.4062 44.6828 54.393 44.2994 54.7104C44.0481 54.9219 43.982 55.1335 43.9026 56.1385C43.6911 58.5717 42.5274 60.3569 40.3984 61.4809C39.314 62.0495 38.4809 62.1685 35.8626 62.1156C33.6278 62.076 33.4956 62.0627 32.8609 61.7189C31.9617 61.2561 31.1682 60.3701 30.8244 59.4444C30.5864 58.8097 30.5467 58.413 30.5467 56.7997V54.8955L31.5914 55.3451C33.932 56.3633 35.7304 56.4294 37.423 55.5699C39.1289 54.6971 40.081 53.15 39.2479 52.5681C38.719 52.1979 38.4016 52.3169 37.5288 53.1896C36.6164 54.1021 36.0742 54.3401 34.937 54.3401C34.1039 54.3401 32.4642 53.8244 31.4063 53.2425L30.6128 52.7929L30.5732 46.9745L30.5467 41.1561L31.4327 41.4073C32.6493 41.7379 34.1303 41.7776 35.0031 41.4734C36.4709 40.9577 37.833 39.1593 37.3172 38.3923C37.1453 38.1279 36.6032 37.9163 36.2858 37.9956C36.1007 38.0485 35.8362 38.313 35.6378 38.67C35.1089 39.5692 34.527 39.8602 33.3237 39.8469C32.6493 39.8337 32.0542 39.7279 31.4724 39.5163L30.6128 39.199L30.5732 31.7011L30.5467 24.2033L31.6707 23.8463C32.5435 23.5818 32.9799 23.5157 33.6543 23.5554C34.6461 23.6215 35.0163 23.8463 35.6511 24.7323C35.9817 25.2083 36.1403 25.3273 36.5238 25.3538C37.066 25.3934 37.423 25.0496 37.423 24.4678C37.423 23.9785 36.6693 22.9074 35.9949 22.4446C34.818 21.6379 33.4824 21.4792 31.6707 21.9421C31.1021 22.0875 30.6128 22.2065 30.5864 22.2065C30.5732 22.2065 30.5467 20.461 30.5467 18.3188V14.4178L31.2608 14.0211C32.6361 13.2277 33.6807 12.9103 34.9105 12.8971C36.2726 12.8838 36.8544 13.1483 37.7007 14.1401C38.1371 14.669 38.3355 14.8013 38.6528 14.8013C39.5785 14.8013 39.8165 13.9153 39.1421 12.9896C38.3884 11.9714 37.2644 11.3234 35.8626 11.0722C34.7122 10.8738 33.2179 11.1383 31.6046 11.8127L30.5335 12.2756L30.5732 8.282C30.6128 4.7645 30.6393 4.23555 30.8509 3.86529C31.2476 3.11154 31.9088 2.4768 32.5964 2.14621C33.2047 1.85529 33.403 1.82884 34.9105 1.86851C36.4577 1.90818 36.6164 1.93463 37.4627 2.33134Z" fill="#3AAA35"/>
</svg>
