<svg width="72" height="65" viewBox="0 0 72 65" fill="none" xmlns="http://www.w3.org/2000/svg">
<path d="M33.1328 0.0302811C31.2685 0.142418 28.9837 0.39473 27.3857 0.661057C25.4513 0.983452 22.5358 1.69833 22.0031 1.97867C21.5265 2.23098 20.8257 2.98791 20.5033 3.59065C20.1388 4.27749 20.1668 5.59511 20.5593 6.33802C20.8677 6.95478 21.6527 7.71171 22.1152 7.86589C22.3956 7.95 22.4096 8.06214 22.4096 9.56198V11.1599H13.9712C9.27548 11.1599 5.15443 11.216 4.70587 11.3001C2.365 11.6786 0.5708 13.4027 0.122249 15.7155C0.0101114 16.3183 -0.017923 19.5703 0.0101114 27.0695L0.0521631 37.5824L0.500714 38.5215C0.739006 39.0401 1.22961 39.769 1.58004 40.1475L2.22483 40.8343V50.31C2.22483 56.7859 2.2809 60.0239 2.37902 60.5285C2.84159 62.7012 4.52365 64.3832 6.6823 64.8318C7.73359 65.0561 63.9986 65.0561 65.0499 64.8318C67.2086 64.3832 68.8906 62.7012 69.3532 60.5285C69.4513 60.0239 69.5074 56.7859 69.5074 50.31V40.8343L70.1522 40.1475C70.5026 39.769 70.9932 39.0401 71.2315 38.5215L71.6801 37.5824L71.7221 27.0695C71.7502 19.5703 71.7221 16.3183 71.61 15.7155C71.1614 13.4027 69.3672 11.6786 67.0264 11.3001C66.5778 11.216 62.4568 11.1599 57.775 11.1599H49.3226V9.56198C49.3226 8.06214 49.3367 7.95 49.617 7.86589C50.0796 7.71171 50.8645 6.95478 51.1729 6.33802C51.5654 5.59511 51.5934 4.27749 51.229 3.59065C50.9066 2.98791 50.2057 2.23098 49.7291 1.97867C48.79 1.48807 44.697 0.633018 41.6132 0.282593C39.847 0.0863495 34.7027 -0.0678406 33.1328 0.0302811ZM41.5431 2.39919C44.8792 2.77765 48.4255 3.57663 49.0143 4.08125C49.6731 4.65596 49.3927 5.81939 48.5377 6.02964C48.3554 6.08571 47.4724 5.93152 46.5612 5.70725C43.0289 4.83818 40.2675 4.5298 35.8661 4.5298C31.4507 4.5298 28.8715 4.81015 25.213 5.70725C23.1805 6.19785 22.8021 6.1558 22.4797 5.35682C22.2274 4.7681 22.3676 4.27749 22.8582 3.9551C23.8394 3.32433 28.9416 2.42722 33.2029 2.13286C34.6747 2.03474 39.7349 2.18893 41.5431 2.39919ZM38.8097 6.67443C41.3749 6.84264 43.6457 7.16504 45.6081 7.64162L47.15 8.02008L47.192 9.59001L47.2341 11.1599H35.8661H24.4982L24.5402 9.59001L24.5823 8.02008L26.1242 7.64162C29.9088 6.7305 34.4504 6.38007 38.8097 6.67443ZM67.6151 13.6129C67.9094 13.7531 68.4 14.1176 68.6804 14.4119C69.6756 15.4352 69.6476 15.0707 69.6476 26.5088C69.6476 38.073 69.6896 37.6244 68.5963 38.7037C68.1057 39.2084 67.6291 39.4466 65.4985 40.2877C60.5364 42.2361 54.7473 43.8761 49.8553 44.7171L49.3367 44.8152L49.2946 39.8672L49.2525 34.9191L48.8601 34.064C48.3695 32.9987 47.6826 32.3119 46.5893 31.8073L45.7482 31.4148H35.8661H25.984L25.143 31.8073C24.0496 32.3119 23.3628 32.9987 22.8722 34.064L22.4797 34.9191L22.4376 39.8672L22.3956 44.8152L21.8769 44.7171C16.9849 43.8761 11.1958 42.2361 6.23375 40.2877C4.10314 39.4466 3.62655 39.2084 3.13595 38.7037C2.04261 37.6244 2.08466 38.073 2.08466 26.4948C2.08466 15.4772 2.07064 15.6595 2.79954 14.6783C3.20603 14.1316 4.04707 13.5709 4.71989 13.4167C5.01425 13.3466 18.5128 13.3046 36.1465 13.3046C66.5498 13.3326 67.0684 13.3326 67.6151 13.6129ZM46.0987 33.9099C46.365 34.0781 46.7014 34.4425 46.8556 34.7088C47.136 35.1854 47.15 35.4097 47.15 40.1755V45.1516L45.1315 45.3759C44.0241 45.5021 42.4542 45.6563 41.6552 45.7123L40.2115 45.8105V45.3339C40.2115 44.647 39.6087 43.4836 38.8798 42.7827C37.2398 41.1708 34.4924 41.1708 32.8524 42.7827C32.1235 43.4836 31.5208 44.647 31.5208 45.3339V45.8105L30.077 45.7123C29.278 45.6563 27.7081 45.5021 26.6007 45.3759L24.5823 45.1516V40.1755C24.5823 35.4097 24.5963 35.1854 24.8766 34.7088C25.0308 34.4425 25.3672 34.0781 25.6336 33.9099L26.0961 33.5875H35.8661H45.6361L46.0987 33.9099ZM5.75717 42.3622C13.6629 45.404 22.0452 47.2963 29.9368 47.8149L31.3666 47.913L31.4507 48.4317C31.5909 49.3428 31.8151 50.0156 32.1516 50.5483C33.1047 52.0621 34.941 52.8611 36.6791 52.5107C38.7396 52.0761 39.9171 50.7445 40.2815 48.4317L40.3656 47.913L41.7954 47.8149C49.6871 47.2963 58.0694 45.404 65.9751 42.3622C66.704 42.0819 67.3207 41.8576 67.3488 41.8576C67.3768 41.8576 67.4048 45.9086 67.4048 50.8707C67.4048 61.0471 67.4329 60.7668 66.3535 61.8321C65.2181 62.9815 67.9094 62.8834 35.8661 62.8834C3.82279 62.8834 6.51409 62.9815 5.3787 61.8321C4.29938 60.7668 4.32741 61.0471 4.32741 50.8707C4.32741 45.9086 4.35544 41.8576 4.38348 41.8576C4.41151 41.8576 5.02827 42.0819 5.75717 42.3622ZM37.0576 44.0303C37.9827 44.5629 38.179 45.1096 38.179 47.1141C38.1649 48.4317 38.1229 48.8942 37.9266 49.2447C37.0436 50.8847 34.6887 50.8847 33.8056 49.2447C33.4411 48.5718 33.4552 45.6422 33.8196 44.8993C34.3803 43.7639 35.9082 43.3434 37.0576 44.0303Z" fill="#3AAA35"/>
</svg>
