<svg width="12" height="6" viewBox="0 0 12 6" fill="none" xmlns="http://www.w3.org/2000/svg">
<path fill-rule="evenodd" clip-rule="evenodd" d="M11.7802 5.79538C11.6395 5.9264 11.4486 6 11.2496 6C11.0505 6 10.8597 5.9264 10.7189 5.79538L5.99547 1.39743L1.27203 5.79538C1.13047 5.92269 0.940866 5.99313 0.744064 5.99154C0.547263 5.98994 0.359007 5.91644 0.219842 5.78687C0.0806771 5.65729 0.00173852 5.48201 2.8374e-05 5.29877C-0.00168178 5.11553 0.0739734 4.939 0.210699 4.80719L4.93414 0.409236C5.21565 0.147202 5.59741 0 5.99547 0C6.39353 0 6.77529 0.147202 7.0568 0.409236L11.7802 4.80719C11.921 4.93824 12 5.11597 12 5.30128C12 5.4866 11.921 5.66433 11.7802 5.79538Z" fill="#2B2B2B"/>
</svg>
