<svg width="120" height="24" viewBox="0 0 120 24" fill="none" xmlns="http://www.w3.org/2000/svg">
<path d="M8.24301 7.33992L1.86301 8.26492L1.75001 8.28792C1.57895 8.33333 1.423 8.42333 1.2981 8.54872C1.1732 8.67412 1.08381 8.83041 1.03907 9.00165C0.994331 9.17289 0.995837 9.35293 1.04344 9.5234C1.09104 9.69386 1.18303 9.84864 1.31001 9.97192L5.93201 14.4709L4.84201 20.8259L4.82901 20.9359C4.81854 21.1128 4.85528 21.2894 4.93546 21.4474C5.01564 21.6055 5.13639 21.7394 5.28535 21.8354C5.4343 21.9315 5.6061 21.9862 5.78316 21.994C5.96022 22.0018 6.13617 21.9625 6.29301 21.8799L11.999 18.8799L17.692 21.8799L17.792 21.9259C17.9571 21.9909 18.1365 22.0109 18.3118 21.9837C18.4871 21.9565 18.652 21.8832 18.7896 21.7712C18.9272 21.6592 19.0326 21.5127 19.0948 21.3466C19.1571 21.1804 19.1741 21.0008 19.144 20.8259L18.053 14.4709L22.677 9.97092L22.755 9.88592C22.8664 9.74869 22.9395 9.58438 22.9667 9.40972C22.994 9.23506 22.9744 9.0563 22.9101 8.89165C22.8458 8.72701 22.7389 8.58235 22.6005 8.47244C22.4621 8.36252 22.297 8.29126 22.122 8.26592L15.742 7.33992L12.89 1.55992C12.8075 1.39246 12.6797 1.25144 12.5212 1.15283C12.3627 1.05422 12.1797 1.00195 11.993 1.00195C11.8063 1.00195 11.6233 1.05422 11.4648 1.15283C11.3063 1.25144 11.1785 1.39246 11.096 1.55992L8.24301 7.33992Z" fill="#E0F0DF"/>
<path d="M32.243 7.33992L25.863 8.26492L25.75 8.28792C25.5789 8.33333 25.423 8.42333 25.2981 8.54872C25.1732 8.67412 25.0838 8.83041 25.0391 9.00165C24.9943 9.17289 24.9958 9.35293 25.0434 9.5234C25.091 9.69386 25.183 9.84864 25.31 9.97192L29.932 14.4709L28.842 20.8259L28.829 20.9359C28.8185 21.1128 28.8553 21.2894 28.9355 21.4474C29.0156 21.6055 29.1364 21.7394 29.2853 21.8354C29.4343 21.9315 29.6061 21.9862 29.7832 21.994C29.9602 22.0018 30.1362 21.9625 30.293 21.8799L35.999 18.8799L41.692 21.8799L41.792 21.9259C41.9571 21.9909 42.1365 22.0109 42.3118 21.9837C42.4871 21.9565 42.652 21.8832 42.7896 21.7712C42.9272 21.6592 43.0326 21.5127 43.0948 21.3466C43.1571 21.1804 43.1741 21.0008 43.144 20.8259L42.053 14.4709L46.677 9.97092L46.755 9.88592C46.8664 9.74869 46.9395 9.58438 46.9667 9.40972C46.994 9.23506 46.9744 9.0563 46.9101 8.89165C46.8458 8.72701 46.7389 8.58235 46.6005 8.47244C46.4621 8.36252 46.297 8.29126 46.122 8.26592L39.742 7.33992L36.89 1.55992C36.8075 1.39246 36.6797 1.25144 36.5212 1.15283C36.3627 1.05422 36.1797 1.00195 35.993 1.00195C35.8063 1.00195 35.6233 1.05422 35.4648 1.15283C35.3063 1.25144 35.1785 1.39246 35.096 1.55992L32.243 7.33992Z" fill="#E0F0DF"/>
<path d="M56.243 7.33992L49.863 8.26492L49.75 8.28792C49.5789 8.33333 49.423 8.42333 49.2981 8.54872C49.1732 8.67412 49.0838 8.83041 49.0391 9.00165C48.9943 9.17289 48.9958 9.35293 49.0434 9.5234C49.091 9.69386 49.183 9.84864 49.31 9.97192L53.932 14.4709L52.842 20.8259L52.829 20.9359C52.8185 21.1128 52.8553 21.2894 52.9355 21.4474C53.0156 21.6055 53.1364 21.7394 53.2853 21.8354C53.4343 21.9315 53.6061 21.9862 53.7832 21.994C53.9602 22.0018 54.1362 21.9625 54.293 21.8799L59.999 18.8799L65.692 21.8799L65.792 21.9259C65.9571 21.9909 66.1365 22.0109 66.3118 21.9837C66.4871 21.9565 66.652 21.8832 66.7896 21.7712C66.9272 21.6592 67.0326 21.5127 67.0948 21.3466C67.1571 21.1804 67.1741 21.0008 67.144 20.8259L66.053 14.4709L70.677 9.97092L70.755 9.88592C70.8664 9.74869 70.9395 9.58438 70.9667 9.40972C70.994 9.23506 70.9744 9.0563 70.9101 8.89165C70.8458 8.72701 70.7389 8.58235 70.6005 8.47244C70.4621 8.36252 70.297 8.29126 70.122 8.26592L63.742 7.33992L60.89 1.55992C60.8075 1.39246 60.6797 1.25144 60.5212 1.15283C60.3627 1.05422 60.1797 1.00195 59.993 1.00195C59.8063 1.00195 59.6233 1.05422 59.4648 1.15283C59.3063 1.25144 59.1785 1.39246 59.096 1.55992L56.243 7.33992Z" fill="#E0F0DF"/>
<path d="M80.243 7.33992L73.863 8.26492L73.75 8.28792C73.5789 8.33333 73.423 8.42333 73.2981 8.54872C73.1732 8.67412 73.0838 8.83041 73.0391 9.00165C72.9943 9.17289 72.9958 9.35293 73.0434 9.5234C73.091 9.69386 73.183 9.84864 73.31 9.97192L77.932 14.4709L76.842 20.8259L76.829 20.9359C76.8185 21.1128 76.8553 21.2894 76.9355 21.4474C77.0156 21.6055 77.1364 21.7394 77.2853 21.8354C77.4343 21.9315 77.6061 21.9862 77.7832 21.994C77.9602 22.0018 78.1362 21.9625 78.293 21.8799L83.999 18.8799L89.692 21.8799L89.792 21.9259C89.9571 21.9909 90.1365 22.0109 90.3118 21.9837C90.4871 21.9565 90.652 21.8832 90.7896 21.7712C90.9272 21.6592 91.0326 21.5127 91.0948 21.3466C91.1571 21.1804 91.1741 21.0008 91.144 20.8259L90.053 14.4709L94.677 9.97092L94.755 9.88592C94.8664 9.74869 94.9395 9.58438 94.9667 9.40972C94.994 9.23506 94.9744 9.0563 94.9101 8.89165C94.8458 8.72701 94.7389 8.58235 94.6005 8.47244C94.4621 8.36252 94.297 8.29126 94.122 8.26592L87.742 7.33992L84.89 1.55992C84.8075 1.39246 84.6797 1.25144 84.5212 1.15283C84.3627 1.05422 84.1797 1.00195 83.993 1.00195C83.8063 1.00195 83.6233 1.05422 83.4648 1.15283C83.3063 1.25144 83.1785 1.39246 83.096 1.55992L80.243 7.33992Z" fill="#E0F0DF"/>
<path d="M104.243 7.33992L97.863 8.26492L97.75 8.28792C97.5789 8.33333 97.423 8.42333 97.2981 8.54872C97.1732 8.67412 97.0838 8.83041 97.0391 9.00165C96.9943 9.17289 96.9958 9.35293 97.0434 9.5234C97.091 9.69386 97.183 9.84864 97.31 9.97192L101.932 14.4709L100.842 20.8259L100.829 20.9359C100.819 21.1128 100.855 21.2894 100.935 21.4474C101.016 21.6055 101.136 21.7394 101.285 21.8354C101.434 21.9315 101.606 21.9862 101.783 21.994C101.96 22.0018 102.136 21.9625 102.293 21.8799L107.999 18.8799L113.692 21.8799L113.792 21.9259C113.957 21.9909 114.136 22.0109 114.312 21.9837C114.487 21.9565 114.652 21.8832 114.79 21.7712C114.927 21.6592 115.033 21.5127 115.095 21.3466C115.157 21.1804 115.174 21.0008 115.144 20.8259L114.053 14.4709L118.677 9.97092L118.755 9.88592C118.866 9.74869 118.939 9.58438 118.967 9.40972C118.994 9.23506 118.974 9.0563 118.91 8.89165C118.846 8.72701 118.739 8.58235 118.6 8.47244C118.462 8.36252 118.297 8.29126 118.122 8.26592L111.742 7.33992L108.89 1.55992C108.807 1.39246 108.68 1.25144 108.521 1.15283C108.363 1.05422 108.18 1.00195 107.993 1.00195C107.806 1.00195 107.623 1.05422 107.465 1.15283C107.306 1.25144 107.179 1.39246 107.096 1.55992L104.243 7.33992Z" fill="#E0F0DF"/>
</svg>
