<svg width="28" height="30" viewBox="0 0 28 30" fill="none" xmlns="http://www.w3.org/2000/svg">
<path d="M9.45333 17.0127L18.56 22.3193M18.5467 7.67935L9.45333 12.986M26 5.66602C26 7.87515 24.2091 9.66602 22 9.66602C19.7909 9.66602 18 7.87515 18 5.66602C18 3.45688 19.7909 1.66602 22 1.66602C24.2091 1.66602 26 3.45688 26 5.66602ZM10 14.9993C10 17.2085 8.20914 18.9993 6 18.9993C3.79086 18.9993 2 17.2085 2 14.9993C2 12.7902 3.79086 10.9993 6 10.9993C8.20914 10.9993 10 12.7902 10 14.9993ZM26 24.3327C26 26.5418 24.2091 28.3327 22 28.3327C19.7909 28.3327 18 26.5418 18 24.3327C18 22.1235 19.7909 20.3327 22 20.3327C24.2091 20.3327 26 22.1235 26 24.3327Z" stroke="#3F3F3F" stroke-width="2.66667" stroke-linecap="round" stroke-linejoin="round"/>
</svg>
